<?xml version="1.0" encoding="utf-8"?>
<!-- Generated by IcoMoon.io -->
<!DOCTYPE svg PUBLIC "-//W3C//DTD SVG 1.1//EN" "http://www.w3.org/Graphics/SVG/1.1/DTD/svg11.dtd">
<svg version="1.1" xmlns="http://www.w3.org/2000/svg" xmlns:xlink="http://www.w3.org/1999/xlink" width="150" height="130" viewBox="0 0 21 21">
    <path
            style="fill:#333333;fill-opacity:1"
            d="M 10.958984 1.4003906 A 3.6399505 3.6103578 0 0 0 7.3203125 5.0117188 A 3.6399505 3.6103578 0 0 0 10.958984 8.6210938 A 3.6399505 3.6103578 0 0 0 14.599609 5.0117188 A 3.6399505 3.6103578 0 0 0 10.958984 1.4003906 z M 11.330078 2.7714844 L 12.226562 2.7714844 L 12.226562 3.6074219 L 11.330078 3.6074219 C 11.23284 3.6074219 11.150391 3.6725279 11.150391 3.7480469 L 11.150391 4.1660156 L 12.226562 4.1660156 L 12.046875 5.0019531 L 11.150391 5.0019531 L 11.150391 7.2304688 L 10.074219 7.2304688 L 10.074219 5.0019531 L 9.3554688 5.0019531 L 9.3554688 4.1660156 L 10.074219 4.1660156 L 10.074219 3.7480469 C 10.074219 3.210217 10.637562 2.7714844 11.330078 2.7714844 z "
            id="path3374" />
</svg>
