<?xml version="1.0" encoding="utf-8"?>
<!-- Generated by IcoMoon.io -->
<!DOCTYPE svg PUBLIC "-//W3C//DTD SVG 1.1//EN" "http://www.w3.org/Graphics/SVG/1.1/DTD/svg11.dtd">
<svg version="1.1" xmlns="http://www.w3.org/2000/svg" xmlns:xlink="http://www.w3.org/1999/xlink" width="150" height="150" viewBox="0 0 20 21">
    <path
            style="fill:#333333;fill-opacity:1"
            d="M 3.2949219 1.4804688 A 3.6300862 3.6300864 0 0 0 -0.3359375 5.109375 A 3.6300862 3.6300864 0 0 0 3.2949219 8.7402344 A 3.6300862 3.6300864 0 0 0 6.9238281 5.109375 A 3.6300862 3.6300864 0 0 0 3.2949219 1.4804688 z M 4.4609375 2.8125 C 4.8301112 2.8310396 5.1919851 2.999161 5.4589844 3.3144531 C 5.8149814 3.7344821 5.9123366 4.3067771 5.7597656 4.8046875 L 5.7597656 4.8066406 C 5.7238266 4.9227339 5.6072199 4.9863488 5.4980469 4.9492188 C 5.3888729 4.911001 5.3283613 4.7860162 5.3632812 4.6699219 C 5.4724543 4.3137089 5.4036576 3.9079021 5.1503906 3.609375 C 4.8971226 3.310848 4.5251757 3.1955615 4.1796875 3.2734375 C 4.0674632 3.2993965 3.9580048 3.2248075 3.9335938 3.1054688 C 3.9091824 2.9872117 3.9795726 2.8697081 4.0917969 2.84375 C 4.2130907 2.8164391 4.3378796 2.8063201 4.4609375 2.8125 z M 2.6054688 3.296875 C 2.7329925 3.2993087 2.8391333 3.3382894 2.9140625 3.4179688 C 3.0466295 3.5589397 3.0593714 3.8012012 2.9746094 4.0917969 C 2.9298552 4.2370889 3.1035156 4.1582031 3.1035156 4.1582031 C 3.655483 3.9115576 4.136535 3.896903 4.3125 4.1640625 C 4.406752 4.3071966 4.399296 4.5080468 4.3125 4.7402344 C 4.2721534 4.8469575 4.3241046 4.8618426 4.4003906 4.8867188 C 4.7119742 4.9894725 5.0585938 5.2373645 5.0585938 5.6757812 C 5.0585938 6.3990243 4.0764138 7.3105469 2.6015625 7.3105469 C 1.4762679 7.3105469 0.32617188 6.7306108 0.32617188 5.7773438 C 0.32617188 5.2779957 0.62220876 4.7000942 1.1328125 4.1582031 C 1.6454505 3.6130664 2.2228974 3.289574 2.6054688 3.296875 z M 4.2460938 3.6113281 C 4.4813919 3.5572473 4.7385174 3.6346966 4.9121094 3.8398438 C 5.0856984 4.0439093 5.1328438 4.3239136 5.0585938 4.5683594 C 5.0277407 4.6685944 4.9262913 4.7231302 4.8320312 4.6914062 C 4.7377762 4.6585971 4.6869609 4.5503189 4.7167969 4.4511719 C 4.7540922 4.3318337 4.7312464 4.1959333 4.6464844 4.0957031 C 4.5617228 3.9965451 4.4359272 3.9584159 4.3203125 3.984375 C 4.2250405 4.0070886 4.130735 3.9402832 4.109375 3.8378906 C 4.0890323 3.7354973 4.1498048 3.6326001 4.2460938 3.6113281 z M 2.3925781 4.6972656 C 1.4951226 4.7920874 0.81473087 5.3762067 0.87304688 6.0039062 C 0.93102379 6.630165 1.706996 7.0632055 2.6054688 6.96875 C 3.5029242 6.8750095 4.1823799 6.289809 4.1230469 5.6621094 C 4.0660871 5.0358508 3.2910508 4.6024417 2.3925781 4.6972656 z M 2.4472656 5.328125 C 2.555485 5.3172807 2.6667227 5.3239514 2.7734375 5.3535156 C 3.2165711 5.4764596 3.4408163 5.9199965 3.2597656 6.3515625 C 3.0763415 6.7910629 2.5487645 7.0262755 2.1015625 6.8730469 C 1.6702975 6.7245041 1.4882075 6.2690983 1.6777344 5.8613281 C 1.8168281 5.5614487 2.1226076 5.360658 2.4472656 5.328125 z M 2.6914062 5.8632812 C 2.6385146 5.8420132 2.5709325 5.8706223 2.5390625 5.9257812 C 2.5085485 5.9809404 2.524217 6.0456504 2.578125 6.0683594 C 2.6320334 6.0917944 2.702505 6.0651375 2.734375 6.0078125 C 2.764211 5.9490462 2.7442972 5.8834653 2.6914062 5.8632812 z M 2.1230469 6.0097656 C 2.0499401 6.0359499 1.9842957 6.0885892 1.9414062 6.1601562 C 1.8546107 6.3043717 1.8955503 6.4746755 2.0332031 6.5410156 C 2.1732292 6.6087965 2.3604696 6.5439459 2.4472656 6.3964844 C 2.5315682 6.2480374 2.4861463 6.0775717 2.3457031 6.0136719 C 2.2761986 5.9826656 2.1961537 5.9835814 2.1230469 6.0097656 z "
            id="path3509" />
</svg>
