<?xml version="1.0" encoding="utf-8"?>
<!-- Generated by IcoMoon.io -->
<!DOCTYPE svg PUBLIC "-//W3C//DTD SVG 1.1//EN" "http://www.w3.org/Graphics/SVG/1.1/DTD/svg11.dtd">
<svg version="1.1" xmlns="http://www.w3.org/2000/svg" xmlns:xlink="http://www.w3.org/1999/xlink" width="170" height="110" viewBox="0 0 20 21">
    <path
            style="fill:#333333;fill-opacity:1"
            d="M 2.2285156 1.4003906 A 3.6498153 3.6103573 0 0 0 -1.4199219 5.0117188 A 3.6498153 3.6103573 0 0 0 2.2285156 8.6210938 A 3.6498153 3.6103573 0 0 0 5.8789062 5.0117188 A 3.6498153 3.6103573 0 0 0 2.2285156 1.4003906 z M 3.1464844 3.2265625 C 3.4457924 3.2265625 3.716012 3.3385154 3.90625 3.5214844 C 4.142779 3.4793271 4.3673414 3.4005132 4.5683594 3.2929688 C 4.4900454 3.5126463 4.324344 3.6980184 4.109375 3.8144531 C 4.319271 3.792084 4.5205982 3.7414406 4.7070312 3.6660156 C 4.5675232 3.8550072 4.390741 4.0226621 4.1875 4.1542969 C 4.189446 4.1947338 4.1914062 4.2340926 4.1914062 4.2753906 C 4.1914062 5.5194655 3.1426276 6.9550781 1.2285156 6.9550781 C 0.64099731 6.9550781 0.0944569 6.7991075 -0.3671875 6.53125 C -0.2850681 6.540139 -0.20347962 6.5449219 -0.11914062 6.5449219 C 0.36913708 6.5449219 0.81713211 6.3932829 1.1738281 6.140625 C 0.71884241 6.132595 0.3359746 5.8619626 0.203125 5.4882812 C 0.2674889 5.4988922 0.3312205 5.5039062 0.3984375 5.5039062 C 0.4935565 5.5039062 0.58663612 5.4922111 0.67382812 5.4707031 C 0.19728182 5.3846674 -0.16210938 5.0031505 -0.16210938 4.546875 L -0.16210938 4.5351562 C -0.021333175 4.6048453 0.13996668 4.6497069 0.31054688 4.6542969 C 0.031213875 4.485954 -0.15234375 4.1974557 -0.15234375 3.8710938 C -0.15234375 3.6990226 -0.10081355 3.5352885 -0.01171875 3.3964844 C 0.50160705 3.9663269 1.2678665 4.3412834 2.1328125 4.3808594 C 2.1150825 4.3117441 2.1074219 4.2394326 2.1074219 4.1660156 C 2.1074219 3.6463604 2.5716484 3.2265625 3.1464844 3.2265625 z "
            id="path3362" />
</svg>
