
<?xml version="1.0" encoding="utf-8"?>
<!-- Generated by IcoMoon.io -->
<!DOCTYPE svg PUBLIC "-//W3C//DTD SVG 1.1//EN" "http://www.w3.org/Graphics/SVG/1.1/DTD/svg11.dtd">
<svg version="1.1" xmlns="http://www.w3.org/2000/svg" xmlns:xlink="http://www.w3.org/1999/xlink" width="150" height="110" viewBox="0 0 21 21">
    <path
            style="fill:#333333;fill-opacity:1"
            d="M 4.921875 1.3808594 A 3.6399508 3.6103578 0 0 0 1.2832031 4.9921875 A 3.6399508 3.6103578 0 0 0 4.921875 8.6015625 A 3.6399508 3.6103578 0 0 0 8.5625 4.9921875 A 3.6399508 3.6103578 0 0 0 4.921875 1.3808594 z M 4.9121094 2.7519531 C 6.3014434 2.7519531 7.4277344 3.7891303 7.4277344 5.0683594 C 7.4277344 6.0913388 6.7080594 6.958992 5.7089844 7.265625 C 5.5813054 7.288211 5.5371094 7.2159769 5.5371094 7.1542969 C 5.5371094 7.0781459 5.5390625 6.8293492 5.5390625 6.5195312 C 5.5390625 6.3035275 5.4593906 6.1616538 5.3691406 6.0898438 C 5.9292136 6.0325128 6.5175781 5.8370509 6.5175781 4.9472656 C 6.5175781 4.6944889 6.4191365 4.4883191 6.2578125 4.3261719 C 6.2839125 4.2679725 6.37117 4.0319743 6.234375 3.7128906 C 6.234375 3.7128906 6.0231667 3.6495355 5.5429688 3.9492188 C 5.3420217 3.8979678 5.1259494 3.8738771 4.9121094 3.8730469 C 4.6982694 3.8739159 4.4838351 3.8979638 4.2832031 3.9492188 C 3.8023761 3.649532 3.5898438 3.7128906 3.5898438 3.7128906 C 3.4533577 4.0319743 3.5403062 4.2676799 3.5664062 4.3261719 C 3.4057123 4.4883191 3.3066406 4.6944889 3.3066406 4.9472656 C 3.3066406 5.8350249 3.89431 6.0333069 4.453125 6.0917969 C 4.381114 6.1497069 4.3156087 6.2526469 4.2929688 6.4023438 C 4.1495697 6.4614117 3.787033 6.5631032 3.5625 6.2089844 C 3.5625 6.2089844 3.4283013 5.9869231 3.1757812 5.9707031 C 3.1757812 5.9707031 2.9298971 5.9674221 3.1582031 6.1113281 C 3.1582031 6.1113281 3.323033 6.1833391 3.4375 6.4511719 C 3.4375 6.4511719 3.5851393 6.8647504 4.2851562 6.7246094 C 4.2860562 6.9180274 4.2890625 7.0989969 4.2890625 7.1542969 C 4.2890625 7.2153929 4.2429765 7.2890081 4.1171875 7.2675781 C 3.1174835 6.9612341 2.3964844 6.0919167 2.3964844 5.0683594 C 2.3964844 3.7891296 3.5227754 2.7519531 4.9121094 2.7519531 z "
            id="path3346" />
</svg>
